<svg xmlns="http://www.w3.org/2000/svg" width="48" height="48" viewBox="0 0 48 48" fill="none">
  <!-- Board background -->
  <rect x="4" y="4" width="40" height="40" rx="4" fill="#1a5c2a"/>
  <!-- Traces -->
  <path d="M12 12h8v4h8v-4h8" stroke="#4ade80" stroke-width="2" stroke-linecap="round"/>
  <path d="M12 24h6l4-4h4l4 4h6" stroke="#4ade80" stroke-width="2" stroke-linecap="round"/>
  <path d="M12 36h8v-4h8v4h8" stroke="#4ade80" stroke-width="2" stroke-linecap="round"/>
  <path d="M16 12v24" stroke="#4ade80" stroke-width="1.5" stroke-linecap="round" stroke-dasharray="2 3"/>
  <path d="M32 12v24" stroke="#4ade80" stroke-width="1.5" stroke-linecap="round" stroke-dasharray="2 3"/>
  <!-- Solder pads -->
  <circle cx="12" cy="12" r="2.5" fill="#fbbf24"/>
  <circle cx="36" cy="12" r="2.5" fill="#fbbf24"/>
  <circle cx="12" cy="24" r="2.5" fill="#fbbf24"/>
  <circle cx="36" cy="24" r="2.5" fill="#fbbf24"/>
  <circle cx="12" cy="36" r="2.5" fill="#fbbf24"/>
  <circle cx="36" cy="36" r="2.5" fill="#fbbf24"/>
  <!-- IC chip -->
  <rect x="20" y="20" width="8" height="8" rx="1" fill="#333"/>
  <circle cx="22" cy="22" r="0.8" fill="#666"/>
</svg>
